<svg xmlns="http://www.w3.org/2000/svg" xmlns:xlink="http://www.w3.org/1999/xlink" width="55.186" height="72.928" viewBox="0 0 55.186 72.928">
  <defs>
    <clipPath id="clip-path">
      <rect id="Rectangle_488" data-name="Rectangle 488" width="55.186" height="72.928" fill="none"/>
    </clipPath>
  </defs>
  <g id="allergy-icon" transform="translate(27.593 36.464)">
    <g id="Group_80" data-name="Group 80" transform="translate(-27.593 -36.464)">
      <line id="Line_34" data-name="Line 34" x1="0.144" y1="0.827" transform="translate(28.078 52.094)" fill="none" stroke="#ECF0F8" stroke-miterlimit="10" stroke-width="3.779"/>
      <line id="Line_35" data-name="Line 35" x1="0.395" y2="0.108" transform="translate(21.859 48.031)" fill="none" stroke="#ECF0F8" stroke-miterlimit="10" stroke-width="3.617"/>
      <g id="Group_79" data-name="Group 79" clip-path="url(#clip-path)">
        <path id="Path_388" data-name="Path 388" d="M10.971,36.236a3.236,3.236,0,1,0-3.236,3.236,3.236,3.236,0,0,0,3.236-3.236" transform="translate(-2.882 -21.136)" fill="#ECF0F8"/>
        <path id="Path_389" data-name="Path 389" d="M23.571,58.536a3.236,3.236,0,1,0-3.236,3.236,3.236,3.236,0,0,0,3.236-3.236" transform="translate(-10.952 -35.419)" fill="#ECF0F8"/>
        <path id="Path_390" data-name="Path 390" d="M48.971,36.236a3.236,3.236,0,1,0-3.236,3.236,3.236,3.236,0,0,0,3.236-3.236" transform="translate(-27.221 -21.136)" fill="#ECF0F8"/>
        <path id="Path_391" data-name="Path 391" d="M32.571,6.536a3.236,3.236,0,1,0-3.236,3.236,3.236,3.236,0,0,0,3.236-3.236" transform="translate(-16.717 -2.114)" fill="#ECF0F8"/>
        <path id="Path_392" data-name="Path 392" d="M102.571,30.936a3.236,3.236,0,1,0-3.236,3.236,3.236,3.236,0,0,0,3.236-3.236" transform="translate(-61.551 -17.741)" fill="#ECF0F8"/>
        <path id="Path_393" data-name="Path 393" d="M87.671,3.236a3.236,3.236,0,1,0-3.236,3.236,3.236,3.236,0,0,0,3.236-3.236" transform="translate(-52.007 0)" fill="#ECF0F8"/>
        <path id="Path_394" data-name="Path 394" d="M130.371,62.236a3.236,3.236,0,1,0-3.236,3.236,3.236,3.236,0,0,0,3.236-3.236" transform="translate(-79.356 -37.789)" fill="#ECF0F8"/>
        <path id="Path_395" data-name="Path 395" d="M57.148,72.309c-2.193-5.393-6.04-6.22-9.311-5.68A12.116,12.116,0,0,0,39.927,71.7l-3.739,5.249-.108-.072,3.811-6.292a11.54,11.54,0,0,0,1.438-8.664c-.755-3.092-2.912-6.184-8.7-6.22s-7.945,3.164-8.7,6.4a12.259,12.259,0,0,0,1.618,9.24l3.02,4.925-.324.216-5.285-5.105A12.477,12.477,0,0,0,14.4,68.966c-2.984.144-6.579,1.546-7.586,6.831A11.217,11.217,0,0,0,6.6,77.882c0,3.883,2.445,5.968,5.033,7.047a14.457,14.457,0,0,0,9.491.5l5.5-2.3a5.931,5.931,0,0,0,.252.827l-.647.18-6.04,4.242a11.4,11.4,0,0,0-4.818,7.334c-.539,3.128.252,6.867,5.608,9.24A10.893,10.893,0,0,0,25.4,106a7.652,7.652,0,0,0,6.256-3.379,12.08,12.08,0,0,0,2.193-9.132l-.683-4.71h.18l1.941,7.118a11.5,11.5,0,0,0,5.249,7.011c2.768,1.582,6.507,2.121,10.534-2.049s3.236-7.981,1.4-10.785a12.188,12.188,0,0,0-7.8-5.177L38.92,83.67h0l7.3,1.114a11.433,11.433,0,0,0,8.556-1.977,7.515,7.515,0,0,0,3.308-6.22,11.432,11.432,0,0,0-.935-4.314M32.809,85.036a4.314,4.314,0,1,1,4.314-4.314,4.314,4.314,0,0,1-4.314,4.314" transform="translate(-4.227 -35.674)" fill="#ECF0F8"/>
        <path id="Path_396" data-name="Path 396" d="M57.148,72.309c-2.193-5.393-6.04-6.22-9.311-5.68A12.116,12.116,0,0,0,39.927,71.7l-3.739,5.249-.108-.072,3.811-6.292a11.54,11.54,0,0,0,1.438-8.664c-.755-3.092-2.912-6.184-8.7-6.22s-7.945,3.164-8.7,6.4a12.259,12.259,0,0,0,1.618,9.24l3.02,4.925-.324.216-5.285-5.105A12.477,12.477,0,0,0,14.4,68.966c-2.984.144-6.579,1.546-7.586,6.831A11.217,11.217,0,0,0,6.6,77.882c0,3.883,2.445,5.968,5.033,7.047a14.457,14.457,0,0,0,9.491.5l5.5-2.3a5.931,5.931,0,0,0,.252.827l-.647.18-6.04,4.242a11.4,11.4,0,0,0-4.818,7.334c-.539,3.128.252,6.867,5.608,9.24A10.893,10.893,0,0,0,25.4,106a7.652,7.652,0,0,0,6.256-3.379,12.08,12.08,0,0,0,2.193-9.132l-.683-4.71h.18l1.941,7.118a11.5,11.5,0,0,0,5.249,7.011c2.768,1.582,6.507,2.121,10.534-2.049s3.236-7.981,1.4-10.785a12.188,12.188,0,0,0-7.8-5.177L38.92,83.67h0l7.3,1.114a11.433,11.433,0,0,0,8.556-1.977,7.515,7.515,0,0,0,3.308-6.22A11.432,11.432,0,0,0,57.148,72.309ZM32.809,85.036a4.314,4.314,0,1,1,4.314-4.314A4.314,4.314,0,0,1,32.809,85.036Z" transform="translate(-4.227 -35.674)" fill="none" stroke="#ECF0F8" stroke-miterlimit="10" stroke-width="2.157"/>
        <path id="Path_397" data-name="Path 397" d="M128.371,21.936a3.236,3.236,0,1,0-3.236,3.236,3.236,3.236,0,0,0,3.236-3.236" transform="translate(-78.075 -11.977)" fill="#ECF0F8"/>
      </g>
    </g>
  </g>
</svg>
