<svg xmlns="http://www.w3.org/2000/svg" xmlns:xlink="http://www.w3.org/1999/xlink" width="73" height="93.298" viewBox="0 0 73 93.298">
  <defs>
    <clipPath id="clip-path">
      <rect id="Rectangle_505" data-name="Rectangle 505" width="73" height="93.298" fill="none"/>
    </clipPath>
  </defs>
  <g id="flu-icon" transform="translate(36.5 46.649)">
    <g id="Group_84" data-name="Group 84" transform="translate(-36.5 -46.649)" clip-path="url(#clip-path)">
      <path id="Path_430" data-name="Path 430" d="M20.927,660.8H5.2a1.7,1.7,0,1,0,0,3.4H20.927a1.7,1.7,0,1,0,0-3.4" transform="translate(-3.024 -570.903)" fill="#ECF0F8"/>
      <rect id="Rectangle_502" data-name="Rectangle 502" width="4.68" height="4.677" transform="translate(7.7 86.074)" fill="#ECF0F8"/>
      <path id="Path_431" data-name="Path 431" d="M51.051,155.8H44.725a.925.925,0,0,0-.925.925v2.639a.925.925,0,0,0,.925.925h6.326a.925.925,0,0,0,.925-.925v-2.626a.925.925,0,0,0-.925-.925" transform="translate(-37.841 -134.605)" fill="#ECF0F8"/>
      <path id="Path_432" data-name="Path 432" d="M68.011,0h0A.911.911,0,0,0,67.1.911V22.665a.911.911,0,1,0,1.823,0V.911A.911.911,0,0,0,68.011,0" transform="translate(-57.972)" fill="#ECF0F8"/>
      <path id="Path_433" data-name="Path 433" d="M22.383,237.691H15.295a1.32,1.32,0,0,1,0-2.626h7.088l.258.027V232.7h-2.49a1.32,1.32,0,1,1,0-2.626h2.476v-2.381l-.258.027H15.295a1.32,1.32,0,1,1,0-2.626h7.088l.258.027v-2.394h-2.49a1.32,1.32,0,0,1,0-2.626h2.476v-2.394l-.258.027H15.295a1.32,1.32,0,1,1,0-2.626h7.088l.258.027v-2.381h-2.49a1.32,1.32,0,1,1,0-2.626h2.476v-2.5a1.306,1.306,0,0,1-.571.136H14.982a1.32,1.32,0,1,1,0-2.626H22.07a1.306,1.306,0,0,1,.571.136v-2.5h-2.49a1.32,1.32,0,1,1,0-2.626h2.476v-2.49a1.306,1.306,0,0,1-.571.136H14.982a1.32,1.32,0,1,1,0-2.626H22.07a1.306,1.306,0,0,1,.571.136v-2.5h-2.49a1.32,1.32,0,1,1,0-2.626h2.476v-2.381l-.258.027H15.295a1.32,1.32,0,0,1,0-2.626h7.088l.258.027a3.4,3.4,0,0,0-3.4-3.319H6.9a3.4,3.4,0,0,0-3.4,3.4v54.526a3.4,3.4,0,0,0,3.4,3.4H19.227a3.4,3.4,0,0,0,3.4-3.4v-2.163l-.258.027" transform="translate(-3.024 -157.154)" fill="#ECF0F8"/>
      <rect id="Rectangle_503" data-name="Rectangle 503" width="19.128" height="61.325" rx="3.401" transform="translate(0.476 24.746)" fill="none" stroke="#ECF0F8" stroke-miterlimit="10" stroke-width="0.68"/>
      <path id="Path_434" data-name="Path 434" d="M213.061,385.925h-16.6a1.864,1.864,0,0,1-1.864-1.864v-.9a1.864,1.864,0,0,1,1.864-1.864h16.6a1.864,1.864,0,0,1,1.85,1.864v.911a1.864,1.864,0,0,1-1.864,1.864" transform="translate(-168.126 -329.427)" fill="#ECF0F8"/>
      <path id="Path_435" data-name="Path 435" d="M405.661,385.925h-16.6a1.864,1.864,0,0,1-1.864-1.864v-.9a1.864,1.864,0,0,1,1.864-1.864h16.6a1.864,1.864,0,0,1,1.864,1.864v.911a1.864,1.864,0,0,1-1.864,1.864" transform="translate(-334.524 -329.427)" fill="#ECF0F8"/>
      <path id="Path_436" data-name="Path 436" d="M202.042,438.435v18.747H214.9v.367h.027v.952H214.9v.177h-13.6a.748.748,0,0,1-.748-.748V437.686a.748.748,0,0,1,.748-.748h13.618v-3.864A3.075,3.075,0,0,0,211.837,430H197.675a3.075,3.075,0,0,0-3.075,3.075v28.651a3.075,3.075,0,0,0,3.075,3.075h14.162a3.075,3.075,0,0,0,3.075-3.075V438.435Z" transform="translate(-168.126 -371.502)" fill="#ECF0F8"/>
      <rect id="Rectangle_504" data-name="Rectangle 504" width="12.829" height="18.751" transform="translate(60.172 66.933)" fill="#ECF0F8"/>
      <path id="Path_437" data-name="Path 437" d="M393.948,458.678a.748.748,0,0,1-.49-.177h-.014a.748.748,0,0,1-.245-.558V437.686a.748.748,0,0,1,.748-.748h13.577v-3.864A3.075,3.075,0,0,0,404.45,430H390.275a3.075,3.075,0,0,0-3.075,3.075v28.651a3.075,3.075,0,0,0,3.075,3.075H404.45a3.075,3.075,0,0,0,3.075-3.075v-3.047Z" transform="translate(-334.524 -371.502)" fill="#ECF0F8"/>
    </g>
  </g>
</svg>
