<svg xmlns="http://www.w3.org/2000/svg" xmlns:xlink="http://www.w3.org/1999/xlink" width="86.436" height="86.442" viewBox="0 0 86.436 86.442">
  <defs>
    <clipPath id="clip-path">
      <rect id="Rectangle_513" data-name="Rectangle 513" width="86.436" height="86.443" fill="none"/>
    </clipPath>
  </defs>
  <g id="immunization-icon" transform="translate(43.218 43.221)">
    <g id="Group_88" data-name="Group 88" transform="translate(-43.218 -43.221)" clip-path="url(#clip-path)">
      <path id="Path_459" data-name="Path 459" d="M3.493,17.185,16.8,3.879A2.033,2.033,0,0,0,13.92,1.016L.63,14.305A2.036,2.036,0,0,0,3.51,17.185" transform="translate(-0.029 -0.415)" fill="#ECF0F8"/>
      <rect id="Rectangle_512" data-name="Rectangle 512" width="5.595" height="5.592" transform="translate(7.429 11.386) rotate(-45)" fill="#ECF0F8"/>
      <path id="Path_460" data-name="Path 460" d="M385.988,391.239l5.351-5.351a1.106,1.106,0,0,0,0-1.578l-4.213-4.213a1.106,1.106,0,0,0-1.578,0l-5.351,5.351a1.106,1.106,0,0,0,0,1.578l4.213,4.213a1.106,1.106,0,0,0,1.578,0" transform="translate(-318.078 -317.995)" fill="#ECF0F8"/>
      <path id="Path_461" data-name="Path 461" d="M425.194,425.194h0a1.09,1.09,0,0,0,0-1.545l-18.4-18.4a1.093,1.093,0,1,0-1.545,1.545l18.4,18.4a1.09,1.09,0,0,0,1.545,0" transform="translate(-339.067 -339.067)" fill="#ECF0F8"/>
      <path id="Path_462" data-name="Path 462" d="M75.189,92.317,92.317,75.189a4.066,4.066,0,0,0,0-5.758L46.22,23.35a4.066,4.066,0,0,0-5.758,0L23.35,40.462a4.066,4.066,0,0,0,0,5.758l46.1,46.1a4.066,4.066,0,0,0,5.742,0Z" transform="translate(-18.552 -18.552)" fill="none" stroke="#ECF0F8" stroke-miterlimit="10" stroke-width="1.627"/>
      <path id="Path_463" data-name="Path 463" d="M95.787,190.062,71.942,166.2H26.3a4.035,4.035,0,0,0,.521.634L39.15,179.164l8.507-8.507a1.955,1.955,0,1,1,2.765,2.765l-8.507,8.507,3.139,3.139,3.79-3.79a1.955,1.955,0,0,1,2.765,2.765l-3.79,3.79,3.139,3.139,8.507-8.507a1.955,1.955,0,1,1,2.765,2.765l-8.507,8.507,3.139,3.139,3.79-3.79a1.955,1.955,0,1,1,2.765,2.765l-3.79,3.79,3.139,3.139,8.507-8.507a1.955,1.955,0,0,1,2.765,2.765l-8.523,8.491,3.139,3.139,3.79-3.774a1.955,1.955,0,1,1,2.765,2.765l-3.79,3.79,1.48,1.48a4.066,4.066,0,0,0,5.758,0L95.787,195.8a4.066,4.066,0,0,0,0-5.758m-35.2-15.42a.439.439,0,0,1-.618.618l-1.122-1.122-1.122,1.122a.439.439,0,0,1-.618-.618L58.23,173.5l-1.122-1.122a.439.439,0,1,1,.618-.618l1.122,1.122,1.122-1.122a.439.439,0,1,1,.618.618L59.466,173.5Z" transform="translate(-22.022 -139.166)" fill="#ECF0F8"/>
      <path id="Path_464" data-name="Path 464" d="M95.787,190.062,71.942,166.2H26.3a4.035,4.035,0,0,0,.521.634L39.15,179.164l8.507-8.507a1.955,1.955,0,1,1,2.765,2.765l-8.507,8.507,3.139,3.139,3.79-3.79a1.955,1.955,0,0,1,2.765,2.765l-3.79,3.79,3.139,3.139,8.507-8.507a1.955,1.955,0,1,1,2.765,2.765l-8.507,8.507,3.139,3.139,3.79-3.79a1.955,1.955,0,1,1,2.765,2.765l-3.79,3.79,3.139,3.139,8.507-8.507a1.955,1.955,0,0,1,2.765,2.765l-8.523,8.491,3.139,3.139,3.79-3.774a1.955,1.955,0,1,1,2.765,2.765l-3.79,3.79,1.48,1.48a4.066,4.066,0,0,0,5.758,0L95.787,195.8a4.066,4.066,0,0,0,0-5.742Zm-35.2-15.436a.439.439,0,0,1-.618.618l-1.122-1.122-1.122,1.122a.439.439,0,0,1-.618-.618L58.23,173.5l-1.122-1.122a.439.439,0,1,1,.618-.618l1.122,1.122,1.122-1.122a.439.439,0,1,1,.618.618L59.466,173.5Z" transform="translate(-22.022 -139.166)" fill="none" stroke="#ECF0F8" stroke-miterlimit="10" stroke-width="0.325"/>
      <path id="Path_465" data-name="Path 465" d="M72.332,166.2H26.3" transform="translate(-22.022 -139.166)" fill="none" stroke="#ECF0F8" stroke-miterlimit="10" stroke-width="0.325"/>
    </g>
  </g>
</svg>
