<svg xmlns="http://www.w3.org/2000/svg" xmlns:xlink="http://www.w3.org/1999/xlink" width="36.961" height="94.5" viewBox="0 0 36.961 94.5">
  <defs>
    <clipPath id="clip-path">
      <rect id="Rectangle_580" data-name="Rectangle 580" width="36.961" height="94.5" fill="none"/>
    </clipPath>
  </defs>
  <g id="wart-icon" transform="translate(18.481 47.25)">
    <g id="Group_147" data-name="Group 147" transform="translate(-18.481 -47.25)" clip-path="url(#clip-path)">
      <path id="Path_776" data-name="Path 776" d="M191.316,7.024c1.324,4.675-.11,9.171-3.2,10.054s-6.675-2.193-8-6.868.11-9.171,3.2-10.054,6.675,2.193,8,6.868" transform="translate(-154.852 -0.004)" fill="#ECF0F8"/>
      <path id="Path_777" data-name="Path 777" d="M117.825,48.34c.855,3.02-.069,5.944-2.069,6.51s-4.317-1.421-5.186-4.441.069-5.944,2.069-6.51,4.331,1.421,5.186,4.441" transform="translate(-95.042 -37.762)" fill="#ECF0F8"/>
      <path id="Path_778" data-name="Path 778" d="M69.815,82.033c.662,2.317-.055,4.537-1.586,4.979s-3.31-1.09-3.972-3.407.055-4.537,1.586-4.979,3.31,1.09,3.972,3.407" transform="translate(-55.183 -67.717)" fill="#ECF0F8"/>
      <path id="Path_779" data-name="Path 779" d="M36.233,115.665c.524,1.862-.041,3.655-1.269,4s-2.662-.869-3.186-2.731.041-3.655,1.269-4,2.662.869,3.186,2.731" transform="translate(-27.227 -97.308)" fill="#ECF0F8"/>
      <path id="Path_780" data-name="Path 780" d="M7.4,145.9c.469,1.655-.041,3.255-1.131,3.572s-2.386-.786-2.855-2.441.041-3.255,1.131-3.572,2.372.786,2.841,2.441" transform="translate(-2.79 -123.628)" fill="#ECF0F8"/>
      <path id="Path_781" data-name="Path 781" d="M35.772,176.217c2.041-5.434,1.641-10.688-1.283-13.543-2.234-2.179-5.2-2.248-8.33-2.331-2.565-.069-14.454.014-21.639,9.378A19.348,19.348,0,0,0,.107,180.81a18.37,18.37,0,0,0,1.834,8.771c5.544,11.819,7.034,20.384,7.3,26.176a20.828,20.828,0,0,0,3.186,10.909c1.131,1.71,3.7,5.572,8.22,6.013,5.075.5,8.523-3.627,8.771-3.931,2.262-2.8,2.372-6.1,2.455-8.523a19.267,19.267,0,0,0-.5-4.965,41.729,41.729,0,0,1-2.207-23.777,41.016,41.016,0,0,1,6.62-15.267m-7.723-5.7a2.083,2.083,0,1,1,2.083-2.083,2.083,2.083,0,0,1-2.083,2.083" transform="translate(-0.079 -138.221)" fill="#ECF0F8"/>
    </g>
  </g>
</svg>
